<svg width="331" height="46" viewBox="0 0 331 46" fill="none" xmlns="http://www.w3.org/2000/svg">
<path d="M323.597 20.45L320.547 18.85C316.747 16.85 314.097 15.45 314.097 13.1C314.097 11.2 316.747 10.7 318.697 10.7C319.497 10.7 320.447 10.8 320.897 10.9L328.497 18.05L327.497 10.25H318.697C314.497 10.25 310.847 12.75 310.847 16.75C310.847 19.7 312.997 22.2 316.147 23.95L318.497 25.25C321.697 27.05 326.697 29.15 326.697 31.9C326.697 33.7 324.347 34.8 321.497 34.8C320.797 34.8 320.197 34.75 319.597 34.65L311.147 27.05L311.997 35.25H321.497C326.147 35.25 330.247 32.4 330.247 28.05C330.247 25 327.197 22.35 323.597 20.45Z" fill="#434625"/>
<path d="M310.059 10.25C303.759 10.15 301.609 12.8 300.309 19.25V10.25L291.109 13.3L293.809 15.1V32.2L291.109 35.25H303.009L300.309 32.2V21.85C300.309 17.35 304.509 16.9 308.109 16.7L310.059 10.25Z" fill="#434625"/>
<path d="M278.004 35.5C285.604 35.5 289.804 30.85 289.804 26.1C289.804 20.7 285.604 17.1 278.904 15.95H288.604C286.204 12.2 282.154 10 277.804 10C270.754 10 265.004 15.7 265.004 22.8C265.004 29.85 270.654 35.5 278.004 35.5ZM275.354 10.9C277.954 10.9 280.204 12.95 281.004 15.55H270.654C271.004 12.6 272.554 10.9 275.354 10.9ZM270.604 15.95H275.154C282.404 15.95 289.204 19.6 289.204 25.3C289.204 29.1 286.254 32.6 282.154 32.6C274.954 32.6 269.904 24 270.604 15.95Z" fill="#434625"/>
<path d="M265.447 34.9C262.097 35.1 260.997 32.15 260.997 28V10.65H265.397V10.25H260.997V4.14999L251.397 10.65H254.497V25.65C254.497 31.8 257.247 35.45 263.547 35.45C264.147 35.45 264.797 35.35 265.447 35.1V34.9Z" fill="#434625"/>
<path d="M251.123 10.25C244.823 10.15 242.673 12.8 241.373 19.25V10.25L232.173 13.3L234.873 15.1V32.2L232.173 35.25H244.073L241.373 32.2V21.85C241.373 17.35 245.573 16.9 249.173 16.7L251.123 10.25Z" fill="#434625"/>
<path d="M231.216 35.25L228.566 32.2V16.85C228.566 12.4 226.166 10 221.616 10C218.766 10 216.966 11.05 214.916 12.35C213.166 13.45 211.116 14.9 208.016 15.7V15.9H211.566C217.066 15.9 219.316 19.5 219.616 19.95C218.616 19 217.516 17.95 214.116 18.05C209.466 18.15 205.616 21.9 205.616 26.65C205.616 31.4 209.316 35.4 213.916 35.4C217.316 35.4 220.516 33.55 222.066 29.15V35.25H231.216ZM215.616 16.25C216.116 13.8 218.066 10.4 220.566 10.4C221.666 10.4 222.066 11.3 222.066 13.75V24.35C221.316 21.45 219.516 17.75 215.616 16.25ZM218.916 32.3C216.266 33.1 213.216 30.75 212.016 26.9C210.866 23.2 212.016 19.55 214.666 18.7C217.266 17.9 220.366 20.25 221.516 23.95C222.716 27.65 221.516 31.45 218.916 32.3Z" fill="#434625"/>
<path d="M193.691 10.25L195.891 13.3V30.7C194.691 32 193.291 32.75 191.941 32.75C189.741 32.75 187.691 30.95 187.691 28.25V10.25H178.991L181.191 13.3V28.3C181.191 32.4 183.991 35.4 187.891 35.4C190.941 35.4 193.891 33.5 196.041 31.15L199.691 35.25H202.391V10.3L193.691 10.25Z" fill="#434625"/>
<path d="M140.647 17.75C140.647 27.55 148.697 35.5 158.447 35.5C163.347 35.5 167.847 33.5 171.047 30.25L172.647 31L169.547 35.25H181.197L173.047 30.75L171.347 29.95C174.397 26.75 176.247 22.45 176.247 17.75C176.247 7.95 168.197 0 158.447 0C148.697 0 140.647 7.95 140.647 17.75ZM146.647 8.2C147.047 5.45 148.547 3.55 149.997 2.85C150.997 2.4 152.097 2.2 153.147 2.2C162.447 2.2 171.847 14.15 171.847 23.8C171.847 26.15 171.297 28.05 170.447 29.5L163.997 26.4C162.097 25.5 156.547 22.95 151.697 18.9C146.597 14.65 146.347 10.4 146.647 8.2ZM145.047 11.7C145.047 8.3 146.147 5.85 147.847 4.25L147.647 4.5C147.047 5.3 146.447 6.5 146.247 8.15C145.897 10.4 146.147 14.85 151.397 19.25C156.347 23.3 161.797 25.8 163.797 26.75L170.247 29.85C168.697 32.15 166.247 33.3 163.747 33.3C154.447 33.3 145.047 21.35 145.047 11.7Z" fill="#434625"/>
<path d="M132.917 37.55C132.917 34.1 130.217 31.55 126.167 31.55C121.617 31.55 118.267 34.25 115.367 36.6C113.767 37.9 111.867 39.6 110.367 39.6C109.117 39.6 108.217 38.85 108.217 37.6C108.217 35.8 110.417 34.4 112.517 33.85L119.417 31.95C123.117 30.95 126.717 26.55 126.717 21.35C126.717 19.1 126.067 17 124.867 15.1V14.65H129.167V9.3L122.917 12.85H122.867C120.767 11 118.117 10 115.417 10C109.017 10 104.017 15.2 104.017 21.4C104.017 27.55 109.017 32.7 115.217 32.75L111.867 33.6C108.517 34.45 103.667 36.2 103.667 40.6C103.667 43.45 106.417 45.75 109.567 45.75C113.067 45.75 115.367 43.35 116.917 40.25C118.267 42.85 121.817 44.4 125.067 44.4C128.717 44.4 132.917 41.85 132.917 37.55ZM112.067 11.1C115.117 11.1 121.167 18.5 121.167 26.4C121.167 28.15 120.717 31.55 118.867 31.55C115.567 31.55 109.517 24.4 109.517 16C109.517 13.3 110.317 11.1 112.067 11.1ZM122.467 43.3C120.367 43.3 118.017 41.7 117.167 39.8L117.817 38.45C119.017 35.95 120.667 32.55 123.517 32.55C125.867 32.55 127.317 34.65 127.317 37.05C127.317 39.95 125.517 43.3 122.467 43.3Z" fill="#434625"/>
<path d="M100.701 17.25C100.701 13.25 98.0008 10.1 94.0508 10.1C91.4008 10.1 88.6008 11.5 86.0508 14.1V10.25L76.8508 13.65L79.5508 15.45V32.2L76.8508 35.25H88.7508L86.0508 32.2V14.7C87.2508 13.4 88.6508 12.75 90.0008 12.75C92.2008 12.75 94.2008 14.75 94.2008 17.3V32.2L91.5008 35.25H103.401L100.701 32.2V17.25Z" fill="#434625"/>
<path d="M69.7602 8.2C71.8102 8.2 73.4602 6.55 73.4602 4.5C73.4602 2.45 71.8102 0.800003 69.7602 0.800003C67.7102 0.800003 66.0602 2.45 66.0602 4.5C66.0602 6.55 67.7102 8.2 69.7602 8.2ZM63.9602 35.25H75.8602L73.1602 32.2V10.25L63.9602 13.25L66.6602 15.05V32.2L63.9602 35.25Z" fill="#434625"/>
<path d="M58.1789 16.1L52.8789 30L46.8289 13.05L49.0789 10.25H37.7289L40.0789 13.05L47.6789 35.25H53.0789V30.65L58.6289 16.15L63.5789 10.25H54.8789L58.1789 16.1Z" fill="#434625"/>
<path d="M32.6019 8.2C34.652 8.2 36.3019 6.55 36.3019 4.5C36.3019 2.45 34.652 0.800003 32.6019 0.800003C30.5519 0.800003 28.9019 2.45 28.9019 4.5C28.9019 6.55 30.5519 8.2 32.6019 8.2ZM26.8019 35.25H38.7019L36.0019 32.2V10.25L26.8019 13.25L29.5019 15.05V32.2L26.8019 35.25Z" fill="#434625"/>
<path d="M0 35.25H23.2L26.2 25.45L16.7 34.85H9.2V3.3L11.9 0.25H0L2.7 3.3V32.2L0 35.25Z" fill="#434625"/>
</svg>
